<?xml version="1.0" encoding="UTF-8" standalone="no"?>
<svg
   width="16"
   height="16"
   fill="currentColor"
   class="bi bi-caret-up-square-fill"
   viewBox="0 0 16 16"
   version="1.1"
   id="svg2314"
   sodipodi:docname="alt-icon.svg"
   inkscape:version="1.2.2 (732a01da63, 2022-12-09)"
   xmlns:inkscape="http://www.inkscape.org/namespaces/inkscape"
   xmlns:sodipodi="http://sodipodi.sourceforge.net/DTD/sodipodi-0.dtd"
   xmlns="http://www.w3.org/2000/svg"
   xmlns:svg="http://www.w3.org/2000/svg">
  <defs
     id="defs2318" />
  <sodipodi:namedview
     id="namedview2316"
     pagecolor="#ffffff"
     bordercolor="#000000"
     borderopacity="0.25"
     inkscape:showpageshadow="2"
     inkscape:pageopacity="0.0"
     inkscape:pagecheckerboard="0"
     inkscape:deskcolor="#d1d1d1"
     showgrid="false"
     inkscape:zoom="48.1875"
     inkscape:cx="6.3398184"
     inkscape:cy="8"
     inkscape:current-layer="svg2314" />
  <path
     d="M0 2a2 2 0 0 1 2-2h12a2 2 0 0 1 2 2v12a2 2 0 0 1-2 2H2a2 2 0 0 1-2-2zm4 9h8a.5.5 0 0 0 .374-.832l-4-4.5a.5.5 0 0 0-.748 0l-4 4.5A.5.5 0 0 0 4 11"
     id="path2312"
     style="fill:#6069e1;fill-opacity:1" />
</svg>
