<?xml version="1.0" encoding="UTF-8" standalone="no"?>
<svg
   width="16"
   height="16"
   fill="currentColor"
   class="bi bi-menu-button-fill"
   viewBox="0 0 16 16"
   version="1.1"
   id="svg4"
   sodipodi:docname="app-icon.svg"
   inkscape:version="1.2.2 (732a01da63, 2022-12-09)"
   xmlns:inkscape="http://www.inkscape.org/namespaces/inkscape"
   xmlns:sodipodi="http://sodipodi.sourceforge.net/DTD/sodipodi-0.dtd"
   xmlns="http://www.w3.org/2000/svg"
   xmlns:svg="http://www.w3.org/2000/svg">
  <defs
     id="defs8" />
  <sodipodi:namedview
     id="namedview6"
     pagecolor="#ffffff"
     bordercolor="#000000"
     borderopacity="0.25"
     inkscape:showpageshadow="2"
     inkscape:pageopacity="0"
     inkscape:pagecheckerboard="true"
     inkscape:deskcolor="#d1d1d1"
     showgrid="false"
     inkscape:zoom="76.5625"
     inkscape:cx="5.9036735"
     inkscape:cy="7.9085714"
     inkscape:current-layer="svg4" />
  <rect
     style="fill:#ffffff;fill-opacity:1;stroke:#000000;stroke-width:0;stroke-linecap:round;stroke-linejoin:round;stroke-dasharray:none"
     id="rect1987"
     width="16.01306"
     height="9.0122442"
     x="-0.013061227"
     y="9.5184971e-10"
     ry="2.1942856" />
  <path
     d="M 14,2.5 A 0.5,0.5 0 0 1 13.5,3 h -6 a 0.5,0.5 0 0 1 0,-1 h 6 A 0.5,0.5 0 0 1 14,2.5"
     id="path297" />
  <path
     d="M 14,6.5 A 0.5,0.5 0 0 1 13.5,7 h -9 a 0.5,0.5 0 0 1 0,-1 h 9 A 0.5,0.5 0 0 1 14,6.5"
     id="path295" />
  <path
     d="M 16,7 A 2,2 0 0 1 14,9 H 2 A 2,2 0 0 1 0,7 V 2 A 2,2 0 0 1 2,0 h 12 a 2,2 0 0 1 2,2 z M 15,4 V 2 A 1,1 0 0 0 14,1 H 2 A 1,1 0 0 0 1,2 V 4 Z M 1,5 V 7 A 1,1 0 0 0 2,8 H 14 A 1,1 0 0 0 15,7 V 5 Z"
     id="path293"
     style="fill:#666666;fill-opacity:1" />
  <path
     d="M 9.5,15 A 1.5,1.5 0 0 0 11,13.5 v -2 A 1.5,1.5 0 0 0 9.5,10 h -8 A 1.5,1.5 0 0 0 0,11.5 v 2 A 1.5,1.5 0 0 0 1.5,15 Z M 3.573,12.573 A 0.25,0.25 0 0 1 3.396,13 H 2.604 A 0.25,0.25 0 0 1 2.427,12.573 l 0.396,-0.396 a 0.25,0.25 0 0 1 0.354,0 z"
     id="path2"
     style="fill:#5f68e1;fill-opacity:1" />
</svg>
